@startuml Class Diagram

skin rose
skinparam classAttributeIconSize 0
' skinparam linetype ortho
skinparam linetype polyline
hide circle
scale 3

class LoaiXe {
    - id: int
    - dongXe: string
    - nuocSanXuat: string
}

class PhieuNhapXe{
    - id: int
    - ngayNhap: date
    - giaNhap: string
    - hienTrang: string 
}


class DayKho {
    - id: int
    - soLuotTrong: int
    - soLuongChua: int
}

class XeDap {
    - id: int
    - tenXe: string
    - idLoaiXe: int
    - idNhapXe: int
    - idDay: int
    - trangThai: string
    - mucGia: int
    - soLuongConLai: int
}

class PhieuDatMua {
    - id: int
    - loaiXe: string
    - tenXe: string
    - idKhachHang: int
    - ngayNhan: date
    - hinhThucGiaoHang: string
    - diaChi: string
}

class PhieuMuaXe {
    - id: int
    - idKhachHang: int
    - ngayNhanXe: date
    - hinhThucGiaoHang: string
    - diaChiKhachHang: string
    - idHoaDon: int
}

class HoaDon {
    - id: int
    - ngayBan: date
}

class ChiTietHoaDon {
    - id: int
    - idHoaDon: int
    - idXe: int
    - soLuong: int
    - donGia: int
}

class PhieuDangKiDoiTra {
    - id: int
    - idKhachHang: int
}

class ChiTietDoiTra {
    - id: int
    - idPhieuDoiTra: int
    - loaiXe: string
    - tenXe: string
    - soLuong: int
    - moTaHienTrang: string
    - linkHinhMinhHoa: string
    - hinhThucDoiTra: string
}

class PhieuThueXe {
    - id: int
    - idKhachHang: int
    - ngayThueXe: date
    - linkAnhChupCCCD: string
}

class ThongTinKhachHang{
    - id: int
    - tenTaiKhoan: string
    - matKhau: string
    - diaChi: string
    - soDiemTich: int
}

class DanhMucGiamGia {
    - id: int
    - soDiem: int
    - mucGiamGia: int
}

class ChiTietNhapXe {
    - id: int
    - idPhieuNhapXe: int
    - idXe: int
    - soLuong: int
}

class ChiTietThueXe {
    - id: int
    - idPhieuThueXe: int
    - idXe: int
    - soLuong: int
    - giaThue: int
    - thoiGianThue: int
    - chiPhiPhatSinh: int
}

LoaiXe "1" -left- "*" XeDap
PhieuNhapXe "1" -- "*" ChiTietNhapXe
ChiTietNhapXe "1" -- "*" XeDap
XeDap "*" -- "1" DayKho
XeDap "*" -- "*" ChiTietThueXe
ChiTietThueXe "*" -- "1" PhieuThueXe
PhieuThueXe "*" -- "1" ThongTinKhachHang
PhieuMuaXe "*" -- "1" ThongTinKhachHang
PhieuMuaXe "1" -up- "1" HoaDon
HoaDon "1" -right- "*" ChiTietHoaDon
ChiTietHoaDon "1" -right- "*" XeDap
ThongTinKhachHang "1" -right- "*" PhieuDatMua
ThongTinKhachHang "1" -left- "*" PhieuDangKiDoiTra
PhieuDangKiDoiTra "1" -up- "*" ChiTietDoiTra 
@enduml